<svg width="132" height="120" viewBox="0 0 132 120" fill="none" xmlns="http://www.w3.org/2000/svg">
<path d="M78.5285 69.4166C73.2191 74.793 70.6343 77.3398 69.2372 83.9896C69.1673 84.4848 68.6084 84.4848 68.6084 83.9896V75.9249C68.6084 70.7607 73.1493 66.0916 78.5285 60.6444L82.8598 56.2584C88.9376 50.1037 90.4046 42.9587 85.5843 38.7848C85.1651 38.4311 85.3747 38.0067 85.8637 38.2896C91.8717 41.0486 96.6221 51.1649 86.3528 61.6348L78.5285 69.4166ZM68.6084 90.0028V98.0675C68.6084 98.5627 69.1673 98.5627 69.2372 98.0675C70.5645 91.5591 73.1493 88.8709 78.5285 83.4944L86.9815 74.9345C97.3207 64.4646 99.1371 54.3483 93.8277 47.8399C93.4784 47.4155 93.1291 47.6985 93.3387 48.1937C96.8317 56.1169 88.5184 64.606 84.5364 68.5676L78.5983 74.6515C73.0794 80.1695 68.6084 84.9093 68.6084 90.0028ZM45.6945 64.0401C35.3553 74.51 40.1057 84.6263 46.1835 87.3853C46.6725 87.6682 46.8821 87.173 46.4629 86.8901C41.6426 82.6455 43.1097 75.5005 49.1875 69.4166L66.3729 52.0138C71.7521 46.5666 76.293 41.8268 76.293 36.7333V28.5979C76.293 28.1027 75.7341 28.1027 75.6642 28.5979C74.3369 35.1062 71.7521 37.7237 66.3729 43.1709L45.6945 64.0401ZM76.293 22.514V14.3785C76.293 13.8833 75.7341 13.8833 75.6642 14.3785C74.3369 20.8869 71.7521 23.5751 66.3729 28.9516L45.1356 50.5282C34.7964 60.9981 32.98 71.1144 38.2894 77.6227C38.6387 78.0472 38.9879 77.7642 38.7784 77.269C35.2854 69.3458 43.5987 60.8567 47.5807 56.895L66.3729 37.8652C71.7521 32.3472 76.2231 27.6782 76.293 22.514ZM42.8302 38.7141C33.8882 47.6985 32.7006 57.2488 34.5868 63.4741C34.7265 63.9693 35.2155 64.0401 35.2155 63.4741C35.1457 58.2392 36.6826 53.7824 46.0438 44.3028L66.3729 23.7166C71.7521 18.2694 76.293 13.5296 76.293 8.4361V0.371401C76.293 -0.1238 75.7341 -0.1238 75.6642 0.371401C74.3369 6.87976 71.7521 9.49724 66.3729 14.9445L42.8302 38.7141ZM55.2652 103.868C55.1255 103.868 54.9858 103.727 54.9858 103.585V98.9164C54.9858 98.7749 55.1255 98.6334 55.2652 98.6334H63.0895C63.2292 98.6334 63.3689 98.4919 63.3689 98.3504C63.3689 94.1766 60.2253 91.3469 47.7903 93.4692L20.8245 98.1382L0.146018 119.078C0.00629896 119.22 -0.0635602 119.503 0.076159 119.644C0.215878 119.786 0.355597 119.786 0.495316 119.715C0.844614 119.644 45.2753 111.933 45.2753 111.933C55.4748 110.165 61.0636 115.117 62.7402 119.715C62.8799 120.139 63.3689 120.069 63.3689 119.644V104.081C63.3689 103.939 63.2292 103.798 63.0895 103.798L55.2652 103.868ZM87.4007 93.8936L78.5285 102.878C73.1493 108.325 68.6084 113.065 68.6084 118.158V119.573C68.6084 119.927 69.0974 120.069 69.2372 119.644C70.9138 115.046 76.5026 110.094 86.702 111.862C86.702 111.862 131.133 119.644 131.482 119.644C131.692 119.715 131.901 119.573 131.971 119.361C132.041 119.22 131.971 119.078 131.901 118.937C131.761 118.724 111.223 97.9967 111.223 97.9967L87.4007 93.8936ZM97.3906 62.13C97.2508 61.6348 96.7618 61.5641 96.7618 62.13C96.8317 67.365 95.2948 71.8218 85.9336 81.3014L78.4586 88.8001C75.1054 92.1958 72.0315 95.3085 70.2152 98.4919H77.5504L78.4586 97.5723L89.1471 86.7486C98.0193 77.835 99.2768 68.2847 97.3906 62.13ZM68.6084 112.145C68.6084 112.641 69.1673 112.641 69.2372 112.145C69.7262 109.103 70.9836 106.274 72.8 103.798H68.8879C68.7481 103.798 68.6084 103.939 68.6084 104.081V112.145Z" fill="white"/>
</svg>
