<svg width="550" height="132" viewBox="0 0 550 132" fill="none" xmlns="http://www.w3.org/2000/svg">
<path d="M78.5285 69.4166C73.2191 74.793 70.6343 77.3398 69.2372 83.9896C69.1673 84.4848 68.6084 84.4848 68.6084 83.9896V75.9249C68.6084 70.7607 73.1493 66.0916 78.5285 60.6444L82.8598 56.2584C88.9376 50.1037 90.4046 42.9587 85.5843 38.7848C85.1651 38.4311 85.3747 38.0067 85.8637 38.2896C91.8717 41.0486 96.6221 51.1649 86.3528 61.6348L78.5285 69.4166V69.4166ZM68.6084 90.0028V98.0675C68.6084 98.5627 69.1673 98.5627 69.2372 98.0675C70.5645 91.5591 73.1493 88.8709 78.5285 83.4944L86.9815 74.9345C97.3207 64.4646 99.1371 54.3483 93.8277 47.8399C93.4784 47.4155 93.1291 47.6985 93.3387 48.1937C96.8317 56.1169 88.5184 64.606 84.5364 68.5676L78.5983 74.6515C73.0794 80.1695 68.6084 84.9093 68.6084 90.0028V90.0028ZM45.6945 64.0401C35.3553 74.51 40.1057 84.6263 46.1835 87.3853C46.6725 87.6682 46.8821 87.173 46.4629 86.8901C41.6426 82.6455 43.1097 75.5005 49.1875 69.4166L66.3729 52.0138C71.7521 46.5666 76.293 41.8268 76.293 36.7333V28.5979C76.293 28.1027 75.7341 28.1027 75.6642 28.5979C74.3369 35.1062 71.7521 37.7237 66.3729 43.1709L45.6945 64.0401V64.0401ZM76.293 22.514V14.3785C76.293 13.8833 75.7341 13.8833 75.6642 14.3785C74.3369 20.8869 71.7521 23.5751 66.3729 28.9516L45.1356 50.5282C34.7964 60.9981 32.98 71.1144 38.2894 77.6227C38.6387 78.0472 38.988 77.7642 38.7784 77.269C35.2854 69.3458 43.5987 60.8567 47.5807 56.895L66.3729 37.8652C71.7521 32.3472 76.2231 27.6782 76.293 22.514V22.514ZM42.8302 38.7141C33.8882 47.6985 32.7006 57.2488 34.5868 63.4741C34.7265 63.9693 35.2155 64.0401 35.2155 63.4741C35.1457 58.2392 36.6826 53.7824 46.0438 44.3028L66.3729 23.7166C71.7521 18.2694 76.293 13.5296 76.293 8.4361V0.371401C76.293 -0.1238 75.7341 -0.1238 75.6642 0.371401C74.3369 6.87976 71.7521 9.49725 66.3729 14.9445L42.8302 38.7141ZM55.2652 103.868C55.1255 103.868 54.9858 103.727 54.9858 103.585V98.9164C54.9858 98.7749 55.1255 98.6334 55.2652 98.6334H63.0895C63.2292 98.6334 63.3689 98.4919 63.3689 98.3504C63.3689 94.1766 60.2253 91.3469 47.7903 93.4692L20.8245 98.1382L0.146018 119.078C0.00629896 119.22 -0.0635602 119.503 0.076159 119.644C0.215878 119.786 0.355597 119.786 0.495316 119.715C0.844614 119.644 45.2753 111.933 45.2753 111.933C55.4748 110.165 61.0636 115.117 62.7402 119.715C62.8799 120.139 63.3689 120.069 63.3689 119.644V104.081C63.3689 103.939 63.2292 103.798 63.0895 103.798L55.2652 103.868V103.868ZM87.4006 93.8936L78.5285 102.878C73.1493 108.325 68.6084 113.065 68.6084 118.158V119.573C68.6084 119.927 69.0974 120.069 69.2372 119.644C70.9138 115.046 76.5026 110.094 86.7021 111.862C86.7021 111.862 131.133 119.644 131.482 119.644C131.692 119.715 131.901 119.573 131.971 119.361C132.041 119.22 131.971 119.078 131.901 118.937C131.761 118.724 111.223 97.9967 111.223 97.9967L87.4006 93.8936V93.8936ZM97.3906 62.13C97.2508 61.6348 96.7618 61.5641 96.7618 62.13C96.8317 67.365 95.2948 71.8218 85.9336 81.3014L78.4586 88.8001C75.1054 92.1958 72.0315 95.3085 70.2152 98.4919H77.5504L78.4586 97.5723L89.1471 86.7486C98.0193 77.835 99.2768 68.2847 97.3906 62.13V62.13ZM68.6084 112.145C68.6084 112.641 69.1673 112.641 69.2372 112.145C69.7262 109.103 70.9836 106.274 72.8 103.798H68.8879C68.7481 103.798 68.6084 103.939 68.6084 104.081V112.145Z" fill="white"/>
<path d="M171.944 55L173.384 51.208H157.496V38.968H170.36V35.224H157.496V24.52H172.328V20.728H153.176V55H171.944ZM185.63 66.52C194.462 66.52 198.878 63.592 198.878 57.688C198.878 53.08 195.662 50.728 190.478 50.728H186.11C183.614 50.728 182.318 50.056 182.318 48.76C182.318 47.56 183.086 46.504 184.67 45.64C185.15 45.736 185.822 45.784 186.686 45.784C192.254 45.784 196.142 42.856 196.142 37.528C196.142 35.56 195.614 33.88 194.606 32.536H197.966L199.214 29.272H190.334C189.326 28.936 188.174 28.792 186.83 28.792C180.974 28.792 177.23 31.672 177.23 37.672C177.23 40.648 178.766 43.72 181.694 44.92C179.63 46.168 178.574 47.656 178.574 49.432C178.574 51.064 179.342 52.312 180.83 53.032C177.086 53.944 175.214 56.056 175.214 59.368C175.214 64.456 179.63 66.52 185.63 66.52ZM186.734 42.856C183.182 42.856 181.406 41.08 181.406 37.528C181.406 33.784 183.182 31.864 186.686 31.864C190.19 31.864 191.966 33.736 191.966 37.48C191.966 41.032 190.238 42.856 186.734 42.856ZM185.582 63.304C181.358 63.304 179.246 61.912 179.246 59.224C179.246 56.104 181.022 54.568 184.622 54.568H189.038C191.342 54.568 192.878 54.808 193.694 55.288C194.462 55.768 194.846 56.68 194.846 58.072C194.846 61.576 191.774 63.304 185.582 63.304ZM207.496 55V18.52L203.272 20.152V55H207.496ZM216.869 19.624C215.477 19.624 214.373 20.44 214.373 22.312C214.373 24.136 215.477 25 216.869 25C218.165 25 219.317 24.136 219.317 22.312C219.317 20.44 218.165 19.624 216.869 19.624ZM218.933 29.272H214.709V55H218.933V29.272ZM242.899 47.896C242.899 43.768 240.067 42.088 235.171 40.264C230.227 38.392 228.547 37.528 228.547 35.368C228.547 33.448 230.419 32.248 233.875 32.248C236.371 32.248 238.867 32.968 241.075 33.928L242.371 30.52C239.971 29.464 237.283 28.792 234.163 28.792C228.403 28.792 224.515 31.24 224.515 35.608C224.515 39.832 227.491 41.368 232.483 43.288C237.523 45.208 238.819 46.36 238.819 48.28C238.819 50.584 236.995 52.072 232.723 52.072C230.275 52.072 227.491 51.304 225.811 50.584L224.563 53.848C226.531 54.904 229.027 55.48 232.627 55.48C238.915 55.48 242.899 52.888 242.899 47.896ZM257.974 28.792C251.158 28.792 246.598 33.88 246.598 42.328C246.598 50.92 251.638 55.48 258.982 55.48C262.486 55.48 264.79 54.952 267.43 53.8L266.23 50.632C264.214 51.4 261.67 51.88 259.174 51.88C254.038 51.88 251.11 48.76 250.966 42.952H268.582V40.408C268.582 33.4 264.55 28.792 257.974 28.792ZM257.926 32.248C262.198 32.248 264.118 35.224 264.166 39.592H251.062C251.493 34.984 253.894 32.248 257.926 32.248ZM295.422 28.84C292.062 28.84 288.894 29.848 286.638 31.048L287.934 34.216C290.046 33.208 292.494 32.248 295.182 32.248C298.542 32.248 300.51 33.688 300.51 37.96V39.496L296.142 39.64C287.742 39.88 283.806 42.712 283.806 47.848C283.806 53.08 287.262 55.48 291.918 55.48C296.238 55.48 298.302 54.184 300.558 51.352H300.75L301.566 55H304.638V37.48C304.638 31.48 301.662 28.84 295.422 28.84ZM300.462 42.424V44.728C300.462 49.72 297.198 52.072 292.878 52.072C290.094 52.072 288.174 50.776 288.174 47.896C288.174 44.632 290.238 42.808 296.67 42.568L300.462 42.424ZM321.247 55.48C325.279 55.48 327.727 53.752 329.263 51.544H329.455L330.079 55H333.487V18.52L329.263 20.152V28.792C329.263 29.752 329.455 31.768 329.551 32.584H329.263C327.679 30.472 325.279 28.792 321.295 28.792C314.911 28.792 310.687 33.352 310.687 42.184C310.687 51.016 314.863 55.48 321.247 55.48ZM321.919 51.976C317.311 51.976 315.055 48.424 315.055 42.28C315.055 36.184 317.311 32.296 321.871 32.296C327.583 32.296 329.311 35.848 329.311 42.232V43C329.311 49 327.343 51.976 321.919 51.976ZM346.842 55H351.69L361.482 29.272H356.97L351.498 44.44C350.778 46.504 349.674 49.672 349.338 51.256H349.146C348.858 49.672 347.85 46.552 347.082 44.44L341.61 29.272H337.098L346.842 55ZM374.552 28.792C367.736 28.792 363.176 33.88 363.176 42.328C363.176 50.92 368.216 55.48 375.56 55.48C379.064 55.48 381.368 54.952 384.008 53.8L382.808 50.632C380.792 51.4 378.248 51.88 375.752 51.88C370.616 51.88 367.688 48.76 367.544 42.952H385.16V40.408C385.16 33.4 381.128 28.792 374.552 28.792ZM374.504 32.248C378.776 32.248 380.696 35.224 380.744 39.592H367.64C368.072 34.984 370.472 32.248 374.504 32.248ZM403.109 28.792C399.845 28.792 396.677 30.088 394.997 32.776H394.757L394.133 29.272H390.725V55H394.949V41.656C394.949 35.656 396.773 32.344 402.485 32.344C406.421 32.344 408.245 34.408 408.245 38.536V55H412.421V38.248C412.421 31.624 409.253 28.792 403.109 28.792ZM426.757 52.024C424.405 52.024 422.725 50.536 422.725 47.416V32.536H430.165V29.272H422.725V23.368L418.501 24.952V47.512C418.501 53.752 422.005 55.48 426.037 55.48C428.005 55.48 429.829 55 430.741 54.424L429.589 51.4C429.013 51.688 427.717 52.024 426.757 52.024ZM436.713 19.624C435.321 19.624 434.217 20.44 434.217 22.312C434.217 24.136 435.321 25 436.713 25C438.009 25 439.161 24.136 439.161 22.312C439.161 20.44 438.009 19.624 436.713 19.624ZM438.777 29.272H434.553V55H438.777V29.272ZM462.743 47.896C462.743 43.768 459.911 42.088 455.015 40.264C450.071 38.392 448.391 37.528 448.391 35.368C448.391 33.448 450.263 32.248 453.719 32.248C456.215 32.248 458.711 32.968 460.919 33.928L462.215 30.52C459.815 29.464 457.127 28.792 454.007 28.792C448.247 28.792 444.359 31.24 444.359 35.608C444.359 39.832 447.335 41.368 452.327 43.288C457.367 45.208 458.663 46.36 458.663 48.28C458.663 50.584 456.839 52.072 452.567 52.072C450.119 52.072 447.335 51.304 445.655 50.584L444.407 53.848C446.375 54.904 448.871 55.48 452.471 55.48C458.759 55.48 462.743 52.888 462.743 47.896ZM475.225 52.024C472.873 52.024 471.193 50.536 471.193 47.416V32.536H478.633V29.272H471.193V23.368L466.969 24.952V47.512C466.969 53.752 470.473 55.48 474.505 55.48C476.473 55.48 478.297 55 479.209 54.424L478.057 51.4C477.481 51.688 476.185 52.024 475.225 52.024ZM492.958 28.792C486.142 28.792 481.582 33.88 481.582 42.328C481.582 50.92 486.622 55.48 493.966 55.48C497.47 55.48 499.774 54.952 502.414 53.8L501.214 50.632C499.198 51.4 496.654 51.88 494.158 51.88C489.022 51.88 486.094 48.76 485.95 42.952H503.566V40.408C503.566 33.4 499.534 28.792 492.958 28.792ZM492.91 32.248C497.182 32.248 499.102 35.224 499.15 39.592H486.046C486.478 34.984 488.878 32.248 492.91 32.248ZM162.2 120.48C166.232 120.48 168.68 118.752 170.216 116.544H170.408L171.032 120H174.44V83.52L170.216 85.152V93.792C170.216 94.752 170.408 96.768 170.504 97.584H170.216C168.632 95.472 166.232 93.792 162.248 93.792C155.864 93.792 151.64 98.352 151.64 107.184C151.64 116.016 155.816 120.48 162.2 120.48ZM162.872 116.976C158.264 116.976 156.008 113.424 156.008 107.28C156.008 101.184 158.264 97.296 162.824 97.296C168.536 97.296 170.264 100.848 170.264 107.232V108C170.264 114 168.296 116.976 162.872 116.976ZM192.067 93.792C185.251 93.792 180.691 98.88 180.691 107.328C180.691 115.92 185.731 120.48 193.075 120.48C196.579 120.48 198.883 119.952 201.523 118.8L200.323 115.632C198.307 116.4 195.763 116.88 193.267 116.88C188.131 116.88 185.203 113.76 185.059 107.952H202.675V105.408C202.675 98.4 198.643 93.792 192.067 93.792ZM192.019 97.248C196.291 97.248 198.211 100.224 198.259 104.592H185.155C185.587 99.984 187.987 97.248 192.019 97.248ZM220.348 120H239.02L240.46 116.16H224.668V85.728H220.348V120ZM239.927 94.272L250.295 120.096L248.951 123.504C247.895 126.288 247.079 127.2 245.111 128.112L246.407 131.52C249.815 130.176 251.447 128.4 253.271 123.552L264.359 94.272H259.799L254.567 108.864C253.655 111.504 252.743 114.336 252.359 115.92H252.167C251.783 113.808 250.967 111.504 250.007 108.912L244.439 94.272H239.927ZM289.859 107.088C289.859 98.592 284.963 93.792 278.003 93.792C270.611 93.792 266.051 98.592 266.051 107.088C266.051 115.632 271.043 120.48 277.859 120.48C285.203 120.48 289.859 115.632 289.859 107.088ZM270.419 107.088C270.419 100.992 272.675 97.344 277.907 97.344C283.139 97.344 285.491 100.992 285.491 107.088C285.491 113.184 283.139 116.976 277.955 116.976C272.723 116.976 270.419 113.184 270.419 107.088ZM307.953 93.792C304.689 93.792 301.521 95.088 299.841 97.776H299.601L298.977 94.272H295.569V120H299.793V106.656C299.793 100.656 301.617 97.344 307.329 97.344C311.265 97.344 313.089 99.408 313.089 103.536V120H317.265V103.248C317.265 96.624 314.097 93.792 307.953 93.792ZM360.508 85.728H355.948L348.268 107.616C347.26 110.496 346.54 112.944 346.108 115.2C345.628 112.944 344.956 110.544 343.948 107.712L336.22 85.728H331.707L343.948 120H348.268L360.508 85.728ZM372.63 93.792C365.814 93.792 361.254 98.88 361.254 107.328C361.254 115.92 366.294 120.48 373.638 120.48C377.142 120.48 379.446 119.952 382.086 118.8L380.886 115.632C378.87 116.4 376.326 116.88 373.83 116.88C368.694 116.88 365.766 113.76 365.622 107.952H383.238V105.408C383.238 98.4 379.206 93.792 372.63 93.792ZM372.582 97.248C376.854 97.248 378.774 100.224 378.822 104.592H365.718C366.15 99.984 368.55 97.248 372.582 97.248ZM401.187 93.792C397.923 93.792 394.755 95.088 393.075 97.776H392.835L392.211 94.272H388.803V120H393.027V106.656C393.027 100.656 394.851 97.344 400.563 97.344C404.499 97.344 406.323 99.408 406.323 103.536V120H410.499V103.248C410.499 96.624 407.331 93.792 401.187 93.792ZM427.091 120.48C431.123 120.48 433.571 118.752 435.107 116.544H435.299L435.923 120H439.331V83.52L435.107 85.152V93.792C435.107 94.752 435.299 96.768 435.395 97.584H435.107C433.523 95.472 431.123 93.792 427.139 93.792C420.755 93.792 416.531 98.352 416.531 107.184C416.531 116.016 420.707 120.48 427.091 120.48ZM427.763 116.976C423.155 116.976 420.899 113.424 420.899 107.28C420.899 101.184 423.155 97.296 427.715 97.296C433.427 97.296 435.155 100.848 435.155 107.232V108C435.155 114 433.187 116.976 427.763 116.976ZM469.39 107.088C469.39 98.592 464.494 93.792 457.534 93.792C450.142 93.792 445.582 98.592 445.582 107.088C445.582 115.632 450.574 120.48 457.39 120.48C464.734 120.48 469.39 115.632 469.39 107.088ZM449.95 107.088C449.95 100.992 452.206 97.344 457.438 97.344C462.67 97.344 465.022 100.992 465.022 107.088C465.022 113.184 462.67 116.976 457.486 116.976C452.254 116.976 449.95 113.184 449.95 107.088ZM503.324 93.792C499.964 93.792 496.796 95.184 495.068 98.112H494.828C493.58 95.184 490.892 93.792 486.956 93.792C483.884 93.792 480.956 95.088 479.372 97.776H479.132L478.508 94.272H475.1V120H479.324V106.656C479.324 100.656 481.004 97.344 486.188 97.344C489.788 97.344 491.468 99.408 491.468 103.44V120H495.644V105.792C495.644 100.32 497.612 97.344 502.604 97.344C506.156 97.344 507.836 99.408 507.836 103.44V120H512.012V103.248C512.012 96.624 509.132 93.792 503.324 93.792ZM528.958 93.792C522.142 93.792 517.582 98.88 517.582 107.328C517.582 115.92 522.622 120.48 529.966 120.48C533.47 120.48 535.774 119.952 538.414 118.8L537.214 115.632C535.198 116.4 532.654 116.88 530.158 116.88C525.022 116.88 522.094 113.76 521.95 107.952H539.566V105.408C539.566 98.4 535.534 93.792 528.958 93.792ZM528.91 97.248C533.182 97.248 535.102 100.224 535.15 104.592H522.046C522.478 99.984 524.878 97.248 528.91 97.248Z" fill="white"/>
</svg>
